<?xml version="1.0" encoding="UTF-8" standalone="no"?>
<!-- Generator: Adobe Illustrator 26.5.0, SVG Export Plug-In . SVG Version: 6.00 Build 0)  -->

<svg
   version="1.1"
   id="Calque_1"
   x="0px"
   y="0px"
   viewBox="0 0 314.35999 166.52411"
   xml:space="preserve"
   sodipodi:docname="logo_DGNum_vf copie.svg"
   width="314.35999"
   height="166.52411"
   inkscape:version="1.2 (dc2aedaf03, 2022-05-15)"
   xmlns:inkscape="http://www.inkscape.org/namespaces/inkscape"
   xmlns:sodipodi="http://sodipodi.sourceforge.net/DTD/sodipodi-0.dtd"
   xmlns:xlink="http://www.w3.org/1999/xlink"
   xmlns="http://www.w3.org/2000/svg"
   xmlns:svg="http://www.w3.org/2000/svg"><defs
   id="defs93" /><sodipodi:namedview
   id="namedview91"
   pagecolor="#ffffff"
   bordercolor="#666666"
   borderopacity="1.0"
   inkscape:showpageshadow="2"
   inkscape:pageopacity="0.0"
   inkscape:pagecheckerboard="0"
   inkscape:deskcolor="#d1d1d1"
   showgrid="false"
   inkscape:zoom="0.70364583"
   inkscape:cx="157.74981"
   inkscape:cy="83.138416"
   inkscape:window-width="1920"
   inkscape:window-height="1080"
   inkscape:window-x="0"
   inkscape:window-y="0"
   inkscape:window-maximized="1"
   inkscape:current-layer="Calque_1" />
<style
   type="text/css"
   id="style2">
	.st0{clip-path:url(#SVGID_00000076564745137627655340000016403154747283637944_);}
	.st1{fill:none;stroke:#FFFFFF;stroke-width:1.1945;}
	.st2{clip-path:url(#SVGID_00000051345043016480668630000017459005625218034844_);fill:none;stroke:#FFFFFF;stroke-width:1.0253;}
	.st3{fill:#FFFFFF;}
</style>
<g
   id="g88"
   transform="translate(-802,-457)">
	<g
   id="g12">
		<defs
   id="defs5">
			<rect
   id="SVGID_1_"
   x="802"
   y="457"
   width="315"
   height="167" />
		</defs>
		<clipPath
   id="SVGID_00000071559021375305558940000017381780678920267449_">
			<use
   xlink:href="#SVGID_1_"
   style="overflow:visible"
   id="use7" />
		</clipPath>
		<path
   d="m 802,515.48 c 13.59,-42.81 59.35,-66.98 103.17,-54.47 43.81,12.5 69.72,57.12 58.41,100.59 -11.31,43.47 -55.71,69.96 -100.11,59.73"
   clip-path="url(#SVGID_00000071559021375305558940000017381780678920267449_)"
   id="path10" />
	</g>
	<path
   class="st1"
   d="m 926.38,515.56 36.75,18.68 -17.87,17.96 z m 0,0"
   id="path14" />
	<g
   id="g24">
		<defs
   id="defs17">
			<rect
   id="SVGID_00000085230230189371685700000006788812971434823571_"
   x="802"
   y="457"
   width="315"
   height="167" />
		</defs>
		<clipPath
   id="SVGID_00000021827592807738578330000004588594336787880373_">
			<use
   xlink:href="#SVGID_00000085230230189371685700000006788812971434823571_"
   style="overflow:visible"
   id="use19" />
		</clipPath>
		
			<path
   style="fill:none;stroke:#ffffff;stroke-width:1.0253"
   d="m 926.2,515.39 7.25,-37.7 m 30.46,76.85 -18.65,-2.34 9.23,32.07 m -28.29,-68.88 -23.93,29.54 42.98,7.26 -61.47,21.56 70.69,10.51 -65.07,14.86 19.57,19.58 -45.52,2.62 m 62.75,-105.93 -44.59,-2 51.84,-35.71 -56.73,-19.94 5.25,55.1 20.3,32.08 -18.49,28.82 -29.36,-16.13 47.85,-12.69 m -12.86,54.21 -5.62,-25.38 m -20.32,47.58 25.94,-22.2 -39.52,-2.18 33.89,-23.2 m -29.35,-16.13 27.19,-44.23 -42.78,-12.87 37.88,-42.78 m -37.88,42.79 15.59,57.09 -4.53,39.33 m -11.06,-96.42 -22.66,-11.96 -7.25,39.15 z m 0,0 m 15.59,57.09 -23.74,6.34 1.45,-21.21 z m 0,0 m -22.3,-14.86 6.71,-42.23"
   clip-path="url(#SVGID_00000021827592807738578330000004588594336787880373_)"
   id="path22" />
	</g>
	<path
   class="st3"
   d="m 918.29,540.21 c 0,3.45 -0.55,6.62 -1.64,9.52 -1.09,2.89 -2.62,5.37 -4.61,7.44 -1.99,2.07 -4.39,3.69 -7.2,4.84 -2.81,1.16 -5.92,1.73 -9.34,1.73 h -17.11 v -46.98 h 17.11 c 3.43,0 6.54,0.58 9.34,1.73 2.81,1.16 5.21,2.78 7.2,4.86 1.99,2.08 3.52,4.55 4.61,7.42 1.09,2.88 1.64,6.03 1.64,9.44 z m -9.46,0 c 0,-2.5 -0.31,-4.74 -0.92,-6.72 -0.62,-1.98 -1.5,-3.66 -2.64,-5.05 -1.14,-1.39 -2.53,-2.46 -4.19,-3.2 -1.65,-0.75 -3.51,-1.12 -5.59,-1.12 h -7.78 v 32.23 h 7.78 c 2.08,0 3.95,-0.36 5.59,-1.09 1.66,-0.74 3.05,-1.8 4.19,-3.19 1.14,-1.39 2.02,-3.09 2.64,-5.08 0.61,-1.98 0.92,-4.24 0.92,-6.78 z m 0,0"
   id="path26" />
	<path
   class="st3"
   d="m 962.96,559.22 c -2.36,1.77 -4.87,3.05 -7.53,3.84 -2.67,0.79 -5.5,1.19 -8.48,1.19 -3.8,0 -7.25,-0.59 -10.33,-1.78 -3.07,-1.19 -5.71,-2.86 -7.91,-5 -2.19,-2.13 -3.88,-4.67 -5.08,-7.61 -1.19,-2.94 -1.78,-6.15 -1.78,-9.64 0,-3.51 0.57,-6.73 1.7,-9.67 1.13,-2.94 2.75,-5.46 4.86,-7.58 2.11,-2.12 4.66,-3.77 7.64,-4.95 2.99,-1.19 6.32,-1.78 10,-1.78 1.91,0 3.68,0.16 5.33,0.47 1.66,0.31 3.19,0.73 4.61,1.27 1.41,0.54 2.71,1.2 3.88,1.95 1.16,0.75 2.22,1.59 3.17,2.5 l -2.66,4.19 c -0.41,0.66 -0.95,1.06 -1.62,1.22 -0.67,0.15 -1.39,-0.02 -2.16,-0.48 -0.74,-0.45 -1.48,-0.86 -2.2,-1.25 -0.73,-0.39 -1.51,-0.74 -2.36,-1.03 -0.84,-0.29 -1.76,-0.52 -2.77,-0.69 -1.01,-0.16 -2.18,-0.25 -3.5,-0.25 -2.22,0 -4.21,0.39 -5.98,1.16 -1.77,0.76 -3.28,1.84 -4.53,3.23 -1.25,1.39 -2.22,3.08 -2.89,5.08 -0.67,1.99 -1,4.2 -1,6.62 0,2.65 0.36,5.01 1.09,7.08 0.74,2.07 1.77,3.82 3.11,5.25 1.33,1.43 2.94,2.52 4.83,3.27 1.88,0.74 3.99,1.11 6.3,1.11 1.55,0 2.95,-0.16 4.19,-0.47 1.24,-0.32 2.46,-0.76 3.66,-1.33 v -8.22 h -5.41 c -0.56,0 -1.02,-0.16 -1.36,-0.48 -0.34,-0.33 -0.51,-0.73 -0.51,-1.2 v -5.25 h 15.7 v 19.23 z m 0,0"
   id="path28" />
	<path
   d="m 975.32,516.76 c 0.39,0 0.73,0.02 1.02,0.06 0.29,0.03 0.55,0.1 0.77,0.2 0.23,0.11 0.44,0.26 0.64,0.45 0.2,0.19 0.43,0.43 0.69,0.73 l 23.14,30.5 c -0.15,-1.56 -0.22,-3.04 -0.22,-4.42 v -27.53 h 8.17 v 46.98 h -4.78 c -0.73,0 -1.34,-0.12 -1.83,-0.38 -0.48,-0.25 -0.95,-0.66 -1.42,-1.22 l -23.06,-30.31 c 0.14,1.46 0.22,2.81 0.22,4.06 v 27.84 h -8.22 v -46.98 h 4.88 z m 0,0"
   id="path30" />
	<path
   d="m 1037.09,558.65 c 1.85,0 3.52,-0.32 4.98,-0.97 1.48,-0.66 2.72,-1.57 3.73,-2.74 1.02,-1.16 1.8,-2.55 2.33,-4.16 0.53,-1.6 0.8,-3.37 0.8,-5.3 v -28.23 h 6.44 v 28.23 c 0,2.69 -0.43,5.18 -1.28,7.47 -0.84,2.28 -2.06,4.26 -3.62,5.94 -1.56,1.68 -3.48,3 -5.75,3.95 -2.26,0.95 -4.81,1.42 -7.62,1.42 -2.84,0 -5.38,-0.48 -7.64,-1.42 -2.25,-0.96 -4.17,-2.27 -5.75,-3.95 -1.57,-1.67 -2.79,-3.66 -3.64,-5.94 -0.84,-2.29 -1.27,-4.78 -1.27,-7.47 v -28.23 h 6.44 v 28.19 c 0,1.94 0.27,3.72 0.8,5.33 0.53,1.62 1.3,3.01 2.31,4.17 1.02,1.17 2.27,2.08 3.73,2.74 1.47,0.65 3.15,0.97 5.01,0.97 z m 0,0"
   id="path32" />
	<path
   d="m 1089.88,546.79 c 0.3,0.55 0.58,1.11 0.83,1.67 0.25,0.56 0.49,1.14 0.72,1.73 0.24,-0.61 0.48,-1.2 0.72,-1.77 0.25,-0.57 0.52,-1.12 0.81,-1.64 l 16.41,-28.47 c 0.28,-0.5 0.59,-0.8 0.92,-0.91 0.33,-0.1 0.78,-0.16 1.34,-0.16 h 4.73 v 46.48 h -5.69 V 529.8 c 0,-0.48 0.02,-1 0.05,-1.58 0.04,-0.58 0.08,-1.16 0.13,-1.75 l -16.59,29.16 c -0.54,0.96 -1.32,1.44 -2.33,1.44 H 1091 c -1.01,0 -1.79,-0.48 -2.33,-1.44 l -16.98,-29.12 c 0.13,1.18 0.2,2.28 0.2,3.3 v 33.92 h -5.66 v -46.48 h 4.75 c 0.56,0 1,0.05 1.31,0.16 0.32,0.11 0.63,0.42 0.94,0.94 z m 0,0"
   id="path34" />
	<path
   d="m 979.1,583.41 c 0,0.87 -0.12,1.65 -0.38,2.36 -0.25,0.7 -0.61,1.3 -1.06,1.81 -0.46,0.5 -1.01,0.89 -1.66,1.16 -0.64,0.27 -1.34,0.41 -2.12,0.41 h -3.95 V 577.7 h 3.95 c 0.78,0 1.49,0.14 2.12,0.42 0.64,0.27 1.2,0.66 1.66,1.16 0.46,0.5 0.81,1.11 1.06,1.81 0.25,0.7 0.38,1.47 0.38,2.32 z m -1.63,0 c 0,-0.7 -0.09,-1.32 -0.25,-1.86 -0.17,-0.55 -0.41,-1.02 -0.74,-1.41 -0.31,-0.38 -0.7,-0.67 -1.14,-0.88 -0.44,-0.2 -0.93,-0.3 -1.47,-0.3 h -2.36 v 8.89 h 2.36 c 0.54,0 1.03,-0.1 1.47,-0.3 0.44,-0.21 0.83,-0.5 1.14,-0.88 0.32,-0.38 0.57,-0.85 0.74,-1.41 0.17,-0.52 0.25,-1.15 0.25,-1.85 z m 0,0"
   id="path36" />
	<path
   d="m 980.35,589.15 z m 4.02,-8.66 c 0.51,0 0.98,0.09 1.41,0.25 0.44,0.17 0.82,0.42 1.14,0.75 0.32,0.32 0.57,0.72 0.75,1.19 0.18,0.47 0.27,1.01 0.27,1.62 0,0.24 -0.03,0.4 -0.08,0.48 -0.05,0.07 -0.15,0.11 -0.28,0.11 h -5.7 c 0.01,0.53 0.08,1 0.22,1.39 0.13,0.4 0.32,0.73 0.55,1 0.24,0.26 0.52,0.46 0.84,0.59 0.32,0.12 0.69,0.19 1.09,0.19 0.38,0 0.7,-0.04 0.97,-0.12 0.27,-0.08 0.5,-0.17 0.7,-0.28 0.2,-0.1 0.36,-0.2 0.48,-0.28 0.13,-0.09 0.25,-0.14 0.36,-0.14 0.06,0 0.11,0.02 0.16,0.05 0.05,0.02 0.09,0.06 0.12,0.11 l 0.44,0.56 c -0.19,0.22 -0.41,0.41 -0.67,0.58 -0.26,0.17 -0.54,0.31 -0.84,0.42 -0.29,0.1 -0.6,0.18 -0.92,0.23 -0.31,0.05 -0.62,0.08 -0.92,0.08 -0.59,0 -1.14,-0.1 -1.64,-0.3 -0.5,-0.2 -0.93,-0.49 -1.3,-0.88 -0.37,-0.38 -0.65,-0.86 -0.86,-1.42 -0.2,-0.57 -0.3,-1.23 -0.3,-1.97 0,-0.59 0.09,-1.15 0.27,-1.66 0.19,-0.52 0.45,-0.97 0.8,-1.34 0.34,-0.38 0.77,-0.68 1.27,-0.89 0.48,-0.21 1.04,-0.32 1.67,-0.32 z m 0.01,1.11 c -0.71,0 -1.27,0.21 -1.69,0.64 -0.42,0.42 -0.68,0.98 -0.78,1.7 h 4.64 c 0,-0.34 -0.05,-0.66 -0.16,-0.94 -0.09,-0.29 -0.23,-0.53 -0.42,-0.73 -0.18,-0.21 -0.4,-0.37 -0.67,-0.48 -0.27,-0.13 -0.57,-0.19 -0.92,-0.19 z m 2.16,-4.65 -1.97,2.17 c -0.09,0.09 -0.17,0.16 -0.25,0.19 -0.07,0.03 -0.17,0.05 -0.28,0.05 h -0.92 l 1.25,-2.03 c 0.07,-0.12 0.16,-0.22 0.25,-0.28 0.09,-0.06 0.23,-0.09 0.42,-0.09 h 1.5 z m 0,0"
   id="path38" />
	<rect
   x="989.87"
   y="576.73999"
   width="1.53"
   height="12.41"
   id="rect40" />
	<path
   d="m 993.34,589.15 z m 4.02,-8.66 c 0.51,0 0.98,0.09 1.41,0.25 0.44,0.17 0.82,0.42 1.14,0.75 0.32,0.32 0.57,0.72 0.75,1.19 0.18,0.47 0.27,1.01 0.27,1.62 0,0.24 -0.03,0.4 -0.08,0.48 -0.05,0.07 -0.15,0.11 -0.28,0.11 h -5.7 c 0.01,0.53 0.08,1 0.22,1.39 0.13,0.4 0.32,0.73 0.55,1 0.24,0.26 0.52,0.46 0.84,0.59 0.32,0.12 0.69,0.19 1.09,0.19 0.38,0 0.7,-0.04 0.97,-0.12 0.27,-0.08 0.5,-0.17 0.7,-0.28 0.2,-0.1 0.36,-0.2 0.48,-0.28 0.13,-0.09 0.25,-0.14 0.36,-0.14 0.06,0 0.11,0.02 0.16,0.05 0.05,0.02 0.09,0.06 0.12,0.11 l 0.44,0.56 c -0.19,0.22 -0.41,0.41 -0.67,0.58 -0.26,0.17 -0.54,0.31 -0.84,0.42 -0.29,0.1 -0.6,0.18 -0.92,0.23 -0.31,0.05 -0.62,0.08 -0.92,0.08 -0.59,0 -1.14,-0.1 -1.64,-0.3 -0.5,-0.2 -0.93,-0.49 -1.3,-0.88 -0.37,-0.38 -0.65,-0.86 -0.86,-1.42 -0.2,-0.57 -0.3,-1.23 -0.3,-1.97 0,-0.59 0.09,-1.15 0.27,-1.66 0.19,-0.52 0.45,-0.97 0.8,-1.34 0.34,-0.38 0.77,-0.68 1.27,-0.89 0.48,-0.21 1.04,-0.32 1.67,-0.32 z m 0.02,1.11 c -0.71,0 -1.27,0.21 -1.69,0.64 -0.42,0.42 -0.68,0.98 -0.78,1.7 h 4.64 c 0,-0.34 -0.05,-0.66 -0.16,-0.94 -0.09,-0.29 -0.23,-0.53 -0.42,-0.73 -0.18,-0.21 -0.4,-0.37 -0.67,-0.48 -0.28,-0.13 -0.58,-0.19 -0.92,-0.19 z m 2.15,-4.65 -1.97,2.17 c -0.09,0.09 -0.17,0.16 -0.25,0.19 -0.07,0.03 -0.17,0.05 -0.28,0.05 h -0.92 l 1.25,-2.03 c 0.07,-0.12 0.16,-0.22 0.25,-0.28 0.09,-0.06 0.23,-0.09 0.42,-0.09 h 1.5 z m 0,0"
   id="path42" />
	<path
   d="m 1005.6,580.48 c 0.35,0 0.68,0.04 0.98,0.12 0.31,0.09 0.59,0.2 0.84,0.34 h 2.23 v 0.58 c 0,0.2 -0.12,0.32 -0.34,0.36 l -0.91,0.12 c 0.18,0.38 0.27,0.78 0.27,1.22 0,0.42 -0.08,0.8 -0.23,1.14 -0.16,0.34 -0.37,0.62 -0.64,0.86 -0.27,0.24 -0.59,0.43 -0.97,0.56 -0.38,0.12 -0.79,0.19 -1.23,0.19 -0.38,0 -0.72,-0.05 -1.03,-0.14 -0.17,0.12 -0.29,0.23 -0.38,0.36 -0.09,0.12 -0.12,0.25 -0.12,0.38 0,0.2 0.08,0.35 0.23,0.45 0.16,0.09 0.36,0.17 0.61,0.22 0.26,0.04 0.55,0.07 0.88,0.08 0.33,0.01 0.66,0.03 1,0.06 0.34,0.02 0.68,0.06 1,0.12 0.33,0.06 0.62,0.17 0.88,0.31 0.26,0.14 0.47,0.33 0.62,0.58 0.16,0.24 0.23,0.56 0.23,0.95 0,0.38 -0.09,0.73 -0.27,1.06 -0.17,0.34 -0.42,0.65 -0.75,0.92 -0.34,0.27 -0.74,0.48 -1.22,0.64 -0.47,0.16 -1,0.23 -1.59,0.23 -0.6,0 -1.13,-0.06 -1.58,-0.19 -0.44,-0.12 -0.81,-0.28 -1.11,-0.48 -0.29,-0.21 -0.51,-0.45 -0.66,-0.73 -0.15,-0.27 -0.22,-0.55 -0.22,-0.84 0,-0.42 0.12,-0.77 0.36,-1.06 0.25,-0.29 0.59,-0.52 1.03,-0.69 -0.24,-0.11 -0.43,-0.27 -0.58,-0.45 -0.14,-0.2 -0.2,-0.45 -0.2,-0.77 0,-0.25 0.09,-0.51 0.27,-0.78 0.18,-0.27 0.44,-0.5 0.78,-0.69 -0.4,-0.23 -0.71,-0.54 -0.94,-0.92 -0.23,-0.4 -0.34,-0.85 -0.34,-1.38 0,-0.41 0.07,-0.79 0.22,-1.12 0.16,-0.34 0.37,-0.63 0.64,-0.88 0.28,-0.24 0.61,-0.42 0.98,-0.55 0.39,-0.11 0.81,-0.18 1.26,-0.18 z m 2.52,9.14 c 0,-0.21 -0.06,-0.38 -0.17,-0.5 -0.1,-0.13 -0.25,-0.23 -0.44,-0.3 -0.19,-0.07 -0.41,-0.12 -0.66,-0.16 -0.24,-0.04 -0.5,-0.07 -0.77,-0.08 -0.27,-0.02 -0.55,-0.03 -0.83,-0.05 -0.28,-0.01 -0.55,-0.04 -0.81,-0.08 -0.29,0.15 -0.53,0.33 -0.7,0.55 -0.18,0.21 -0.27,0.46 -0.27,0.77 0,0.19 0.04,0.36 0.12,0.52 0.08,0.16 0.22,0.3 0.41,0.42 0.19,0.12 0.42,0.22 0.7,0.3 0.28,0.07 0.62,0.11 1.02,0.11 0.38,0 0.71,-0.04 1,-0.12 0.3,-0.07 0.55,-0.18 0.75,-0.31 0.21,-0.12 0.36,-0.28 0.47,-0.47 0.12,-0.19 0.18,-0.38 0.18,-0.6 z m -2.52,-4.66 c 0.56,0 0.98,-0.16 1.27,-0.47 0.29,-0.31 0.44,-0.72 0.44,-1.23 0,-0.51 -0.15,-0.91 -0.44,-1.22 -0.28,-0.31 -0.7,-0.47 -1.27,-0.47 -0.55,0 -0.98,0.16 -1.27,0.47 -0.28,0.3 -0.42,0.71 -0.42,1.22 0,0.25 0.04,0.48 0.11,0.69 0.07,0.21 0.18,0.39 0.31,0.55 0.14,0.15 0.32,0.26 0.53,0.34 0.23,0.08 0.47,0.12 0.74,0.12 z m 0,0"
   id="path44" />
	<path
   d="m 1016.43,589.15 c -0.16,0 -0.28,-0.02 -0.36,-0.06 -0.07,-0.05 -0.12,-0.15 -0.16,-0.3 l -0.2,-0.8 c -0.22,0.21 -0.44,0.4 -0.66,0.56 -0.21,0.16 -0.43,0.29 -0.66,0.41 -0.23,0.1 -0.48,0.18 -0.75,0.23 -0.27,0.05 -0.56,0.08 -0.88,0.08 -0.34,0 -0.65,-0.04 -0.94,-0.12 -0.28,-0.09 -0.53,-0.23 -0.75,-0.42 -0.22,-0.19 -0.39,-0.42 -0.52,-0.7 -0.12,-0.28 -0.19,-0.61 -0.19,-1 0,-0.34 0.09,-0.66 0.27,-0.97 0.19,-0.31 0.48,-0.59 0.89,-0.83 0.41,-0.25 0.96,-0.45 1.62,-0.61 0.66,-0.16 1.48,-0.24 2.44,-0.27 v -0.66 c 0,-0.66 -0.14,-1.15 -0.42,-1.48 -0.28,-0.34 -0.7,-0.52 -1.23,-0.52 -0.35,0 -0.66,0.05 -0.91,0.14 -0.25,0.09 -0.46,0.2 -0.64,0.31 -0.18,0.11 -0.34,0.2 -0.47,0.3 -0.14,0.09 -0.27,0.14 -0.39,0.14 -0.1,0 -0.2,-0.02 -0.28,-0.08 -0.07,-0.05 -0.13,-0.12 -0.17,-0.2 l -0.28,-0.48 c 0.47,-0.45 0.97,-0.78 1.52,-1 0.54,-0.23 1.15,-0.34 1.81,-0.34 0.48,0 0.9,0.08 1.27,0.23 0.38,0.15 0.69,0.37 0.94,0.66 0.25,0.28 0.44,0.62 0.56,1.02 0.13,0.4 0.2,0.84 0.2,1.31 v 5.45 z m -3.2,-0.94 c 0.26,0 0.49,-0.02 0.7,-0.08 0.22,-0.05 0.42,-0.12 0.61,-0.22 0.2,-0.1 0.38,-0.22 0.55,-0.36 0.18,-0.14 0.35,-0.3 0.52,-0.48 v -1.77 c -0.68,0.03 -1.26,0.09 -1.73,0.17 -0.48,0.09 -0.87,0.2 -1.17,0.34 -0.29,0.14 -0.51,0.3 -0.64,0.48 -0.14,0.19 -0.2,0.4 -0.2,0.64 0,0.22 0.04,0.41 0.11,0.58 0.07,0.16 0.17,0.29 0.3,0.39 0.12,0.09 0.27,0.17 0.44,0.22 0.14,0.07 0.32,0.09 0.51,0.09 z m 0,0"
   id="path46" />
	<path
   d="m 1018.32,589.15 z m 8.39,-8.38 v 8.38 h -1.53 v -7.25 h -4.06 v 5.09 c 0,0.34 0.08,0.61 0.23,0.78 0.16,0.18 0.36,0.27 0.61,0.27 0.14,0 0.27,-0.02 0.36,-0.06 0.1,-0.04 0.19,-0.09 0.27,-0.14 0.07,-0.05 0.13,-0.1 0.19,-0.14 0.05,-0.04 0.1,-0.06 0.16,-0.06 0.05,0 0.09,0.01 0.12,0.03 0.03,0.02 0.05,0.06 0.08,0.11 l 0.47,0.73 c -0.26,0.25 -0.57,0.45 -0.92,0.58 -0.34,0.12 -0.7,0.19 -1.08,0.19 -0.65,0 -1.15,-0.19 -1.5,-0.56 -0.34,-0.38 -0.52,-0.91 -0.52,-1.62 v -5.19 h -0.94 c -0.09,0 -0.17,-0.03 -0.23,-0.09 -0.06,-0.06 -0.09,-0.14 -0.09,-0.25 v -0.61 l 1.31,-0.17 0.34,-2.62 c 0.02,-0.09 0.05,-0.16 0.11,-0.22 0.06,-0.05 0.14,-0.08 0.25,-0.08 h 0.78 v 2.92 h 5.59 z m 0.33,-2.89 c 0,0.15 -0.03,0.29 -0.09,0.42 -0.05,0.14 -0.13,0.25 -0.23,0.34 -0.11,0.09 -0.23,0.17 -0.36,0.23 -0.12,0.05 -0.26,0.08 -0.41,0.08 -0.15,0 -0.28,-0.02 -0.41,-0.08 -0.12,-0.06 -0.24,-0.14 -0.34,-0.23 -0.09,-0.09 -0.17,-0.21 -0.23,-0.34 -0.05,-0.13 -0.08,-0.27 -0.08,-0.42 0,-0.15 0.02,-0.28 0.08,-0.41 0.06,-0.13 0.14,-0.25 0.23,-0.34 0.1,-0.1 0.22,-0.18 0.34,-0.23 0.12,-0.06 0.26,-0.09 0.41,-0.09 0.15,0 0.28,0.03 0.41,0.09 0.13,0.05 0.25,0.13 0.36,0.23 0.1,0.09 0.18,0.21 0.23,0.34 0.06,0.13 0.09,0.27 0.09,0.41 z m 0,0"
   id="path48" />
	<path
   d="m 1032.71,580.49 c 0.62,0 1.19,0.11 1.69,0.31 0.5,0.2 0.92,0.49 1.27,0.88 0.35,0.39 0.62,0.85 0.81,1.39 0.19,0.53 0.28,1.14 0.28,1.81 0,0.67 -0.09,1.27 -0.28,1.81 -0.19,0.54 -0.46,1.01 -0.81,1.39 -0.34,0.38 -0.77,0.67 -1.27,0.88 -0.5,0.21 -1.06,0.31 -1.69,0.31 -0.63,0 -1.19,-0.1 -1.69,-0.31 -0.5,-0.21 -0.93,-0.5 -1.28,-0.88 -0.35,-0.38 -0.62,-0.85 -0.81,-1.39 -0.19,-0.54 -0.28,-1.14 -0.28,-1.81 0,-0.68 0.09,-1.28 0.28,-1.81 0.19,-0.54 0.46,-1 0.81,-1.39 0.35,-0.38 0.78,-0.68 1.28,-0.88 0.51,-0.2 1.07,-0.31 1.69,-0.31 z m 0,7.58 c 0.41,0 0.77,-0.07 1.08,-0.2 0.31,-0.14 0.57,-0.35 0.77,-0.62 0.21,-0.27 0.36,-0.6 0.47,-1 0.1,-0.39 0.16,-0.85 0.16,-1.36 0,-0.5 -0.05,-0.95 -0.16,-1.34 -0.1,-0.39 -0.26,-0.73 -0.47,-1 -0.2,-0.28 -0.45,-0.49 -0.77,-0.64 -0.3,-0.14 -0.66,-0.22 -1.08,-0.22 -0.42,0 -0.78,0.07 -1.09,0.22 -0.31,0.15 -0.57,0.36 -0.78,0.64 -0.21,0.27 -0.37,0.61 -0.47,1 -0.09,0.4 -0.14,0.84 -0.14,1.34 0,0.51 0.05,0.97 0.14,1.36 0.1,0.4 0.26,0.73 0.47,1 0.21,0.27 0.47,0.48 0.78,0.62 0.31,0.13 0.68,0.2 1.09,0.2 z m 0,0"
   id="path50" />
	<path
   d="m 1038.64,589.15 v -8.53 h 0.92 c 0.1,0 0.19,0.03 0.27,0.08 0.07,0.05 0.11,0.13 0.12,0.23 l 0.12,0.91 c 0.36,-0.41 0.77,-0.73 1.22,-0.97 0.46,-0.25 0.98,-0.38 1.58,-0.38 0.47,0 0.88,0.08 1.23,0.23 0.35,0.15 0.65,0.37 0.88,0.66 0.24,0.28 0.42,0.62 0.55,1.02 0.12,0.4 0.19,0.84 0.19,1.31 v 5.44 h -1.53 v -5.44 c 0,-0.63 -0.15,-1.13 -0.44,-1.48 -0.29,-0.35 -0.73,-0.53 -1.31,-0.53 -0.44,0 -0.85,0.11 -1.23,0.31 -0.38,0.21 -0.72,0.5 -1.03,0.86 v 6.28 z m 0,0"
   id="path52" />
	<path
   d="m 1061.17,588.04 c -0.55,0.42 -1.15,0.73 -1.78,0.94 -0.62,0.2 -1.31,0.3 -2.05,0.3 -0.9,0 -1.7,-0.14 -2.42,-0.42 -0.71,-0.29 -1.32,-0.69 -1.83,-1.2 -0.51,-0.52 -0.9,-1.14 -1.17,-1.86 -0.27,-0.72 -0.41,-1.51 -0.41,-2.38 0,-0.86 0.13,-1.66 0.39,-2.38 0.27,-0.72 0.65,-1.33 1.14,-1.84 0.49,-0.52 1.08,-0.92 1.78,-1.2 0.7,-0.29 1.48,-0.44 2.34,-0.44 0.45,0 0.86,0.04 1.23,0.11 0.38,0.06 0.72,0.16 1.03,0.28 0.32,0.12 0.62,0.28 0.89,0.47 0.27,0.18 0.52,0.38 0.75,0.59 l -0.44,0.72 c -0.07,0.12 -0.17,0.19 -0.28,0.22 -0.12,0.02 -0.24,0 -0.38,-0.08 -0.14,-0.08 -0.29,-0.18 -0.45,-0.28 -0.16,-0.1 -0.34,-0.2 -0.56,-0.3 -0.22,-0.1 -0.48,-0.19 -0.78,-0.25 -0.3,-0.07 -0.66,-0.11 -1.08,-0.11 -0.6,0 -1.15,0.11 -1.64,0.31 -0.49,0.21 -0.91,0.51 -1.25,0.91 -0.34,0.39 -0.61,0.86 -0.8,1.41 -0.19,0.55 -0.28,1.17 -0.28,1.86 0,0.72 0.09,1.37 0.28,1.94 0.2,0.56 0.48,1.04 0.84,1.44 0.36,0.39 0.8,0.68 1.31,0.89 0.51,0.21 1.08,0.31 1.72,0.31 0.49,0 0.93,-0.05 1.31,-0.17 0.38,-0.11 0.76,-0.27 1.12,-0.48 v -2.5 h -1.64 c -0.11,0 -0.19,-0.02 -0.27,-0.08 -0.06,-0.06 -0.09,-0.14 -0.09,-0.23 v -0.89 h 3.44 v 4.39 z m 0,0"
   id="path54" />
	<path
   d="m 1062.77,589.15 z m 4.01,-8.66 c 0.51,0 0.98,0.09 1.41,0.25 0.44,0.17 0.82,0.42 1.14,0.75 0.32,0.32 0.57,0.72 0.75,1.19 0.18,0.47 0.27,1.01 0.27,1.62 0,0.24 -0.03,0.4 -0.08,0.48 -0.06,0.07 -0.15,0.11 -0.28,0.11 h -5.7 c 0.01,0.53 0.08,1 0.22,1.39 0.13,0.4 0.32,0.73 0.55,1 0.24,0.26 0.52,0.46 0.84,0.59 0.32,0.12 0.69,0.19 1.09,0.19 0.38,0 0.7,-0.04 0.97,-0.12 0.27,-0.08 0.5,-0.17 0.7,-0.28 0.2,-0.1 0.36,-0.2 0.49,-0.28 0.13,-0.09 0.25,-0.14 0.36,-0.14 0.06,0 0.11,0.02 0.16,0.05 0.05,0.02 0.09,0.06 0.12,0.11 l 0.44,0.56 c -0.19,0.22 -0.41,0.41 -0.67,0.58 -0.26,0.17 -0.54,0.31 -0.84,0.42 -0.29,0.1 -0.6,0.18 -0.92,0.23 -0.31,0.05 -0.62,0.08 -0.92,0.08 -0.59,0 -1.14,-0.1 -1.64,-0.3 -0.5,-0.2 -0.93,-0.49 -1.3,-0.88 -0.37,-0.38 -0.65,-0.86 -0.86,-1.42 -0.2,-0.57 -0.3,-1.23 -0.3,-1.97 0,-0.59 0.08,-1.15 0.26,-1.66 0.19,-0.52 0.45,-0.97 0.8,-1.34 0.34,-0.38 0.77,-0.68 1.27,-0.89 0.49,-0.21 1.05,-0.32 1.67,-0.32 z m 0.02,1.11 c -0.71,0 -1.27,0.21 -1.69,0.64 -0.42,0.42 -0.68,0.98 -0.78,1.7 h 4.64 c 0,-0.34 -0.06,-0.66 -0.16,-0.94 -0.09,-0.29 -0.23,-0.53 -0.42,-0.73 -0.18,-0.21 -0.4,-0.37 -0.67,-0.48 -0.27,-0.13 -0.57,-0.19 -0.92,-0.19 z m 2.16,-4.65 -1.97,2.17 c -0.09,0.09 -0.17,0.16 -0.25,0.19 -0.07,0.03 -0.17,0.05 -0.28,0.05 h -0.92 l 1.25,-2.03 c 0.07,-0.12 0.16,-0.22 0.25,-0.28 0.09,-0.06 0.23,-0.09 0.42,-0.09 h 1.5 z m 0,0"
   id="path56" />
	<path
   d="m 1072.22,589.15 v -8.53 h 0.92 c 0.1,0 0.19,0.03 0.27,0.08 0.07,0.05 0.11,0.13 0.12,0.23 l 0.12,0.91 c 0.36,-0.41 0.77,-0.73 1.22,-0.97 0.46,-0.25 0.98,-0.38 1.58,-0.38 0.47,0 0.88,0.08 1.23,0.23 0.35,0.15 0.64,0.37 0.87,0.66 0.24,0.28 0.42,0.62 0.55,1.02 0.12,0.4 0.19,0.84 0.19,1.31 v 5.44 h -1.53 v -5.44 c 0,-0.63 -0.15,-1.13 -0.44,-1.48 -0.29,-0.35 -0.73,-0.53 -1.31,-0.53 -0.44,0 -0.85,0.11 -1.23,0.31 -0.38,0.21 -0.72,0.5 -1.03,0.86 v 6.28 z m 0,0"
   id="path58" />
	<path
   d="m 1081.04,589.15 z m 4.02,-8.66 c 0.51,0 0.98,0.09 1.41,0.25 0.44,0.17 0.82,0.42 1.14,0.75 0.32,0.32 0.57,0.72 0.75,1.19 0.18,0.47 0.27,1.01 0.27,1.62 0,0.24 -0.03,0.4 -0.08,0.48 -0.05,0.07 -0.15,0.11 -0.28,0.11 h -5.7 c 0.01,0.53 0.08,1 0.22,1.39 0.13,0.4 0.32,0.73 0.55,1 0.24,0.26 0.52,0.46 0.84,0.59 0.32,0.12 0.69,0.19 1.09,0.19 0.38,0 0.7,-0.04 0.97,-0.12 0.27,-0.08 0.5,-0.17 0.7,-0.28 0.2,-0.1 0.36,-0.2 0.48,-0.28 0.13,-0.09 0.25,-0.14 0.36,-0.14 0.06,0 0.11,0.02 0.16,0.05 0.05,0.02 0.09,0.06 0.12,0.11 l 0.44,0.56 c -0.19,0.22 -0.41,0.41 -0.67,0.58 -0.26,0.17 -0.54,0.31 -0.84,0.42 -0.29,0.1 -0.6,0.18 -0.92,0.23 -0.31,0.05 -0.62,0.08 -0.92,0.08 -0.59,0 -1.14,-0.1 -1.64,-0.3 -0.5,-0.2 -0.93,-0.49 -1.3,-0.88 -0.37,-0.38 -0.65,-0.86 -0.86,-1.42 -0.2,-0.57 -0.3,-1.23 -0.3,-1.97 0,-0.59 0.09,-1.15 0.27,-1.66 0.19,-0.52 0.45,-0.97 0.8,-1.34 0.34,-0.38 0.77,-0.68 1.27,-0.89 0.48,-0.21 1.04,-0.32 1.67,-0.32 z m 0.01,1.11 c -0.71,0 -1.27,0.21 -1.69,0.64 -0.42,0.42 -0.68,0.98 -0.78,1.7 h 4.64 c 0,-0.34 -0.06,-0.66 -0.16,-0.94 -0.09,-0.29 -0.23,-0.53 -0.42,-0.73 -0.18,-0.21 -0.4,-0.37 -0.67,-0.48 -0.27,-0.13 -0.57,-0.19 -0.92,-0.19 z m 2.16,-4.65 -1.97,2.17 c -0.09,0.09 -0.17,0.16 -0.25,0.19 -0.07,0.03 -0.17,0.05 -0.28,0.05 h -0.92 l 1.25,-2.03 c 0.07,-0.12 0.16,-0.22 0.25,-0.28 0.09,-0.06 0.23,-0.09 0.42,-0.09 h 1.5 z m 0,0"
   id="path60" />
	<path
   d="m 1090.41,589.15 v -8.53 h 0.88 c 0.16,0 0.28,0.03 0.34,0.09 0.07,0.06 0.11,0.17 0.13,0.33 l 0.11,1.25 c 0.26,-0.56 0.58,-1 0.97,-1.33 0.38,-0.32 0.84,-0.48 1.38,-0.48 0.19,0 0.36,0.02 0.52,0.06 0.16,0.03 0.3,0.09 0.42,0.17 l -0.12,1.14 c -0.01,0.15 -0.09,0.22 -0.23,0.22 -0.09,0 -0.2,-0.02 -0.36,-0.05 -0.15,-0.03 -0.31,-0.05 -0.48,-0.05 -0.26,0 -0.49,0.04 -0.69,0.12 -0.2,0.07 -0.38,0.19 -0.55,0.34 -0.16,0.15 -0.3,0.34 -0.42,0.56 -0.13,0.22 -0.24,0.47 -0.34,0.75 v 5.39 h -1.56 z m 0,0"
   id="path62" />
	<path
   d="m 1101.92,589.15 c -0.16,0 -0.28,-0.02 -0.36,-0.06 -0.07,-0.05 -0.12,-0.15 -0.16,-0.3 l -0.2,-0.8 c -0.22,0.21 -0.44,0.4 -0.66,0.56 -0.21,0.16 -0.43,0.29 -0.66,0.41 -0.23,0.1 -0.48,0.18 -0.75,0.23 -0.27,0.05 -0.56,0.08 -0.88,0.08 -0.34,0 -0.65,-0.04 -0.94,-0.12 -0.28,-0.09 -0.53,-0.23 -0.75,-0.42 -0.22,-0.19 -0.39,-0.42 -0.52,-0.7 -0.12,-0.28 -0.19,-0.61 -0.19,-1 0,-0.34 0.09,-0.66 0.27,-0.97 0.19,-0.31 0.48,-0.59 0.89,-0.83 0.41,-0.25 0.96,-0.45 1.62,-0.61 0.66,-0.16 1.48,-0.24 2.44,-0.27 v -0.66 c 0,-0.66 -0.14,-1.15 -0.42,-1.48 -0.28,-0.34 -0.69,-0.52 -1.23,-0.52 -0.36,0 -0.66,0.05 -0.91,0.14 -0.25,0.09 -0.46,0.2 -0.64,0.31 -0.18,0.11 -0.34,0.2 -0.47,0.3 -0.14,0.09 -0.27,0.14 -0.39,0.14 -0.1,0 -0.2,-0.02 -0.28,-0.08 -0.07,-0.05 -0.13,-0.12 -0.17,-0.2 l -0.28,-0.48 c 0.47,-0.45 0.97,-0.78 1.52,-1 0.54,-0.23 1.14,-0.34 1.81,-0.34 0.48,0 0.9,0.08 1.27,0.23 0.38,0.15 0.69,0.37 0.94,0.66 0.25,0.28 0.44,0.62 0.56,1.02 0.13,0.4 0.2,0.84 0.2,1.31 v 5.45 z m -3.21,-0.94 c 0.26,0 0.49,-0.02 0.7,-0.08 0.22,-0.05 0.42,-0.12 0.61,-0.22 0.2,-0.1 0.38,-0.22 0.55,-0.36 0.18,-0.14 0.35,-0.3 0.52,-0.48 v -1.77 c -0.68,0.03 -1.26,0.09 -1.73,0.17 -0.48,0.09 -0.87,0.2 -1.17,0.34 -0.29,0.14 -0.51,0.3 -0.64,0.48 -0.14,0.19 -0.2,0.4 -0.2,0.64 0,0.22 0.04,0.41 0.11,0.58 0.07,0.16 0.17,0.29 0.3,0.39 0.12,0.09 0.27,0.17 0.44,0.22 0.15,0.07 0.33,0.09 0.51,0.09 z m 0,0"
   id="path64" />
	<rect
   x="1104.98"
   y="576.73999"
   width="1.53"
   height="12.41"
   id="rect66" />
	<path
   d="m 1112.46,580.49 c 0.51,0 0.98,0.09 1.41,0.25 0.44,0.17 0.82,0.42 1.14,0.75 0.32,0.32 0.57,0.72 0.75,1.19 0.18,0.47 0.27,1.01 0.27,1.62 0,0.24 -0.03,0.4 -0.08,0.48 -0.05,0.07 -0.15,0.11 -0.28,0.11 h -5.7 c 0.01,0.53 0.08,1 0.22,1.39 0.13,0.4 0.32,0.73 0.55,1 0.24,0.26 0.52,0.46 0.84,0.59 0.32,0.12 0.69,0.19 1.09,0.19 0.38,0 0.7,-0.04 0.97,-0.12 0.27,-0.08 0.5,-0.17 0.7,-0.28 0.2,-0.1 0.36,-0.2 0.48,-0.28 0.13,-0.09 0.25,-0.14 0.36,-0.14 0.06,0 0.11,0.02 0.16,0.05 0.05,0.02 0.09,0.06 0.12,0.11 l 0.44,0.56 c -0.19,0.22 -0.41,0.41 -0.67,0.58 -0.26,0.17 -0.54,0.31 -0.84,0.42 -0.29,0.1 -0.6,0.18 -0.92,0.23 -0.31,0.05 -0.62,0.08 -0.92,0.08 -0.59,0 -1.14,-0.1 -1.64,-0.3 -0.5,-0.2 -0.93,-0.49 -1.3,-0.88 -0.37,-0.38 -0.65,-0.86 -0.86,-1.42 -0.2,-0.57 -0.3,-1.23 -0.3,-1.97 0,-0.59 0.09,-1.15 0.27,-1.66 0.19,-0.52 0.45,-0.97 0.8,-1.34 0.34,-0.38 0.77,-0.68 1.27,-0.89 0.49,-0.21 1.05,-0.32 1.67,-0.32 z m 0.02,1.11 c -0.71,0 -1.27,0.21 -1.69,0.64 -0.42,0.42 -0.68,0.98 -0.78,1.7 h 4.64 c 0,-0.34 -0.05,-0.66 -0.16,-0.94 -0.09,-0.29 -0.23,-0.53 -0.42,-0.73 -0.18,-0.21 -0.4,-0.37 -0.67,-0.48 -0.27,-0.13 -0.58,-0.19 -0.92,-0.19 z m 0,0"
   id="path68" />
	<path
   d="m 970.83,600.2 c 0.12,0 0.22,0.02 0.3,0.05 0.07,0.03 0.15,0.1 0.23,0.22 l 6.24,8.58 c -0.01,-0.15 -0.02,-0.29 -0.03,-0.42 -0.01,-0.13 -0.02,-0.26 -0.02,-0.38 v -8.05 h 1.39 v 11.45 h -0.8 c -0.12,0 -0.23,-0.02 -0.31,-0.06 -0.09,-0.04 -0.17,-0.11 -0.25,-0.22 l -6.22,-8.55 c 0.01,0.14 0.02,0.27 0.02,0.39 0.01,0.12 0.02,0.23 0.02,0.34 v 8.09 H 970 V 600.2 Z m 0,0"
   id="path70" />
	<path
   d="m 982.86,603.12 v 5.44 c 0,0.64 0.14,1.13 0.42,1.48 0.29,0.35 0.74,0.53 1.33,0.53 0.43,0 0.83,-0.1 1.2,-0.31 0.38,-0.21 0.72,-0.49 1.05,-0.84 v -6.3 h 1.53 v 8.53 h -0.92 c -0.11,0 -0.2,-0.02 -0.27,-0.06 -0.06,-0.05 -0.1,-0.13 -0.11,-0.25 l -0.14,-0.91 c -0.37,0.41 -0.78,0.73 -1.23,0.98 -0.45,0.24 -0.97,0.36 -1.56,0.36 -0.47,0 -0.88,-0.07 -1.23,-0.22 -0.34,-0.16 -0.64,-0.37 -0.87,-0.66 -0.24,-0.28 -0.42,-0.62 -0.55,-1.02 -0.12,-0.41 -0.17,-0.85 -0.17,-1.33 v -5.44 h 1.52 z m 0,0"
   id="path72" />
	<path
   d="m 990.91,611.66 v -8.53 h 0.91 c 0.11,0 0.2,0.03 0.27,0.08 0.07,0.05 0.11,0.13 0.12,0.23 l 0.14,0.87 c 0.16,-0.19 0.32,-0.36 0.5,-0.52 0.18,-0.16 0.36,-0.3 0.56,-0.42 0.21,-0.12 0.43,-0.22 0.66,-0.28 0.24,-0.06 0.49,-0.09 0.75,-0.09 0.58,0 1.05,0.16 1.42,0.48 0.38,0.31 0.64,0.74 0.8,1.28 0.12,-0.31 0.28,-0.58 0.48,-0.8 0.21,-0.22 0.43,-0.4 0.67,-0.55 0.25,-0.15 0.51,-0.25 0.78,-0.31 0.28,-0.07 0.57,-0.11 0.86,-0.11 0.93,0 1.65,0.28 2.16,0.84 0.51,0.55 0.77,1.34 0.77,2.38 v 5.44 h -1.53 v -5.44 c 0,-0.66 -0.15,-1.16 -0.45,-1.5 -0.3,-0.34 -0.73,-0.52 -1.3,-0.52 -0.26,0 -0.51,0.05 -0.73,0.14 -0.23,0.09 -0.43,0.21 -0.59,0.38 -0.17,0.17 -0.3,0.38 -0.41,0.62 -0.11,0.25 -0.16,0.54 -0.16,0.88 v 5.44 h -1.53 v -5.44 c 0,-0.68 -0.14,-1.18 -0.42,-1.52 -0.28,-0.33 -0.7,-0.5 -1.25,-0.5 -0.38,0 -0.73,0.1 -1.05,0.3 -0.32,0.2 -0.62,0.47 -0.89,0.81 v 6.34 h -1.54 z m 0,0"
   id="path74" />
	<path
   d="m 1004.55,611.66 z m 4.02,-8.66 c 0.51,0 0.98,0.09 1.41,0.25 0.44,0.17 0.82,0.42 1.14,0.75 0.32,0.32 0.57,0.72 0.75,1.19 0.18,0.47 0.27,1.01 0.27,1.62 0,0.24 -0.03,0.4 -0.08,0.48 -0.06,0.07 -0.15,0.11 -0.28,0.11 h -5.7 c 0.01,0.53 0.08,1 0.22,1.39 0.13,0.4 0.32,0.73 0.55,1 0.24,0.26 0.52,0.46 0.84,0.59 0.32,0.12 0.69,0.19 1.09,0.19 0.38,0 0.69,-0.04 0.97,-0.12 0.27,-0.08 0.5,-0.18 0.7,-0.28 0.2,-0.1 0.36,-0.2 0.49,-0.28 0.13,-0.09 0.25,-0.14 0.36,-0.14 0.06,0 0.11,0.02 0.16,0.05 0.05,0.02 0.09,0.06 0.12,0.11 l 0.44,0.56 c -0.19,0.22 -0.41,0.41 -0.67,0.58 -0.26,0.17 -0.54,0.31 -0.84,0.42 -0.29,0.11 -0.6,0.18 -0.92,0.23 -0.31,0.05 -0.62,0.08 -0.92,0.08 -0.59,0 -1.14,-0.1 -1.64,-0.3 -0.5,-0.2 -0.93,-0.49 -1.3,-0.88 -0.37,-0.38 -0.65,-0.86 -0.86,-1.42 -0.2,-0.57 -0.3,-1.23 -0.3,-1.97 0,-0.59 0.09,-1.15 0.26,-1.66 0.19,-0.52 0.45,-0.97 0.8,-1.34 0.34,-0.38 0.77,-0.68 1.27,-0.89 0.48,-0.21 1.04,-0.32 1.67,-0.32 z m 0.01,1.11 c -0.71,0 -1.27,0.21 -1.69,0.64 -0.42,0.42 -0.68,0.98 -0.78,1.7 h 4.64 c 0,-0.34 -0.05,-0.66 -0.16,-0.94 -0.09,-0.29 -0.24,-0.54 -0.42,-0.73 -0.18,-0.21 -0.4,-0.37 -0.67,-0.48 -0.27,-0.13 -0.57,-0.19 -0.92,-0.19 z m 2.16,-4.66 -1.97,2.17 c -0.09,0.09 -0.17,0.16 -0.25,0.19 -0.08,0.03 -0.17,0.05 -0.28,0.05 h -0.92 l 1.25,-2.03 c 0.07,-0.12 0.16,-0.22 0.25,-0.28 0.09,-0.06 0.24,-0.09 0.42,-0.09 h 1.5 z m 0,0"
   id="path76" />
	<path
   d="m 1013.93,611.66 v -8.53 h 0.87 c 0.16,0 0.28,0.03 0.34,0.09 0.07,0.06 0.11,0.17 0.12,0.33 l 0.11,1.25 c 0.26,-0.56 0.58,-1 0.97,-1.33 0.38,-0.32 0.84,-0.48 1.38,-0.48 0.19,0 0.36,0.02 0.51,0.06 0.16,0.03 0.3,0.09 0.42,0.17 l -0.13,1.14 c -0.01,0.15 -0.09,0.22 -0.23,0.22 -0.09,0 -0.2,-0.02 -0.36,-0.05 -0.15,-0.03 -0.31,-0.05 -0.48,-0.05 -0.26,0 -0.49,0.04 -0.69,0.12 -0.2,0.07 -0.38,0.19 -0.55,0.34 -0.16,0.15 -0.3,0.34 -0.42,0.56 -0.13,0.22 -0.24,0.47 -0.34,0.75 v 5.39 h -1.52 z m 0,0"
   id="path78" />
	<path
   d="m 1019.96,611.66 z m 1.86,-8.54 v 8.53 h -1.53 v -8.53 z m 0.3,-2.67 c 0,0.15 -0.03,0.29 -0.09,0.42 -0.05,0.14 -0.13,0.25 -0.23,0.34 -0.1,0.09 -0.23,0.17 -0.36,0.23 -0.12,0.05 -0.26,0.08 -0.41,0.08 -0.15,0 -0.28,-0.02 -0.41,-0.08 -0.12,-0.06 -0.24,-0.14 -0.34,-0.23 -0.09,-0.09 -0.17,-0.21 -0.23,-0.34 -0.05,-0.13 -0.08,-0.27 -0.08,-0.42 0,-0.14 0.02,-0.28 0.08,-0.41 0.06,-0.13 0.14,-0.25 0.23,-0.34 0.1,-0.1 0.22,-0.18 0.34,-0.23 0.12,-0.06 0.26,-0.09 0.41,-0.09 0.15,0 0.28,0.03 0.41,0.09 0.13,0.05 0.25,0.13 0.36,0.23 0.1,0.09 0.18,0.21 0.23,0.34 0.06,0.13 0.09,0.27 0.09,0.41 z m 0,0"
   id="path80" />
	<path
   d="m 1031.27,603.12 v 11.41 h -1.53 v -4.12 c -0.35,0.42 -0.76,0.75 -1.22,1 -0.46,0.25 -0.98,0.38 -1.55,0.38 -0.49,0 -0.93,-0.09 -1.33,-0.28 -0.4,-0.19 -0.73,-0.46 -1.02,-0.83 -0.28,-0.38 -0.5,-0.83 -0.66,-1.38 -0.15,-0.54 -0.22,-1.16 -0.22,-1.88 0,-0.63 0.08,-1.22 0.25,-1.77 0.18,-0.54 0.42,-1.01 0.73,-1.41 0.31,-0.4 0.69,-0.7 1.14,-0.92 0.46,-0.23 0.97,-0.34 1.55,-0.34 0.55,0 1.02,0.1 1.39,0.3 0.38,0.19 0.72,0.46 1.02,0.81 l 0.12,-0.66 c 0.03,-0.21 0.16,-0.31 0.39,-0.31 z m -3.82,7.43 c 0.49,0 0.91,-0.11 1.27,-0.33 0.36,-0.23 0.7,-0.54 1.02,-0.94 v -4.12 c -0.27,-0.35 -0.57,-0.61 -0.91,-0.77 -0.32,-0.16 -0.68,-0.23 -1.06,-0.23 -0.78,0 -1.39,0.28 -1.81,0.84 -0.42,0.56 -0.62,1.37 -0.62,2.42 0,0.55 0.05,1.03 0.14,1.42 0.1,0.4 0.24,0.72 0.42,0.97 0.19,0.25 0.41,0.44 0.67,0.56 0.26,0.12 0.56,0.18 0.88,0.18 z m 0,0"
   id="path82" />
	<path
   d="m 1035.12,603.12 v 5.44 c 0,0.64 0.14,1.13 0.42,1.48 0.29,0.35 0.73,0.53 1.33,0.53 0.43,0 0.83,-0.1 1.2,-0.31 0.38,-0.21 0.72,-0.49 1.05,-0.84 v -6.3 h 1.53 v 8.53 h -0.92 c -0.1,0 -0.19,-0.02 -0.27,-0.06 -0.06,-0.05 -0.1,-0.13 -0.11,-0.25 l -0.14,-0.91 c -0.37,0.41 -0.78,0.73 -1.23,0.98 -0.45,0.24 -0.97,0.36 -1.56,0.36 -0.47,0 -0.88,-0.07 -1.23,-0.22 -0.34,-0.16 -0.64,-0.37 -0.88,-0.66 -0.24,-0.28 -0.42,-0.62 -0.55,-1.02 -0.12,-0.41 -0.17,-0.85 -0.17,-1.33 v -5.44 h 1.53 z m 0,0"
   id="path84" />
	<path
   d="m 1046.55,603 c 0.51,0 0.98,0.09 1.41,0.25 0.44,0.17 0.82,0.42 1.14,0.75 0.32,0.32 0.57,0.72 0.75,1.19 0.17,0.47 0.26,1.01 0.26,1.62 0,0.24 -0.03,0.4 -0.08,0.48 -0.06,0.07 -0.15,0.11 -0.28,0.11 h -5.7 c 0.01,0.53 0.08,1 0.22,1.39 0.13,0.4 0.32,0.73 0.55,1 0.24,0.26 0.52,0.46 0.84,0.59 0.32,0.12 0.69,0.19 1.09,0.19 0.38,0 0.7,-0.04 0.97,-0.12 0.27,-0.08 0.5,-0.18 0.7,-0.28 0.2,-0.1 0.36,-0.2 0.48,-0.28 0.13,-0.09 0.25,-0.14 0.36,-0.14 0.06,0 0.11,0.02 0.16,0.05 0.05,0.02 0.09,0.06 0.12,0.11 l 0.44,0.56 c -0.19,0.22 -0.41,0.41 -0.67,0.58 -0.26,0.17 -0.54,0.31 -0.84,0.42 -0.29,0.11 -0.6,0.18 -0.92,0.23 -0.31,0.05 -0.62,0.08 -0.92,0.08 -0.59,0 -1.14,-0.1 -1.64,-0.3 -0.5,-0.2 -0.93,-0.49 -1.3,-0.88 -0.37,-0.38 -0.65,-0.86 -0.86,-1.42 -0.2,-0.57 -0.3,-1.23 -0.3,-1.97 0,-0.59 0.09,-1.15 0.27,-1.66 0.19,-0.52 0.45,-0.97 0.8,-1.34 0.34,-0.38 0.76,-0.68 1.26,-0.89 0.51,-0.21 1.07,-0.32 1.69,-0.32 z m 0.02,1.11 c -0.71,0 -1.27,0.21 -1.69,0.64 -0.42,0.42 -0.68,0.98 -0.78,1.7 h 4.64 c 0,-0.34 -0.05,-0.66 -0.16,-0.94 -0.09,-0.29 -0.23,-0.54 -0.42,-0.73 -0.18,-0.21 -0.4,-0.37 -0.67,-0.48 -0.27,-0.13 -0.58,-0.19 -0.92,-0.19 z m 0,0"
   id="path86" />
</g>
</svg>
